<svg width="663" height="126" viewBox="0 0 663 126" fill="none" xmlns="http://www.w3.org/2000/svg">
<g clip-path="url(#clip0_12_24)">
<path d="M113.073 91.656C113.073 92.488 112.689 92.904 111.921 92.904C109.553 92.904 107.217 92.84 104.913 92.712C102.609 92.584 100.305 92.52 98.0014 92.52C96.9134 92.52 95.8254 92.552 94.7374 92.616C93.6494 92.616 92.5614 92.648 91.4734 92.712C90.3854 92.776 89.2974 92.872 88.2094 93C87.1854 93.064 86.1294 93.096 85.0414 93.096C84.4654 93.096 84.0814 92.936 83.8894 92.616C83.7614 92.232 83.6974 91.816 83.6974 91.368C83.6974 91.112 83.7614 90.856 83.8894 90.6C84.0174 90.28 84.2414 90.12 84.5614 90.12C84.7534 90.056 85.0414 90.024 85.4254 90.024C85.8734 90.024 86.3214 90.056 86.7694 90.12C87.2814 90.12 87.7614 90.12 88.2094 90.12C89.1054 90.12 90.0974 90.024 91.1854 89.832C92.3374 89.64 92.9774 88.936 93.1054 87.72C93.1694 87.528 93.1694 87.336 93.1054 87.144C93.1054 86.952 93.1054 86.76 93.1054 86.568V27.72H92.5294C90.0974 34.312 87.5694 40.872 84.9454 47.4C82.3214 53.864 79.6974 60.328 77.0734 66.792C76.0494 69.416 74.9934 72.04 73.9054 74.664C72.8174 77.288 71.7294 79.912 70.6414 82.536C70.1934 83.688 69.7454 84.872 69.2974 86.088C68.9134 87.304 68.4334 88.456 67.8574 89.544C67.4094 90.248 66.7054 90.6 65.7454 90.6C64.8494 90.6 64.1774 90.248 63.7294 89.544C63.2174 88.584 62.7374 87.56 62.2894 86.472C61.9054 85.384 61.4894 84.328 61.0414 83.304C60.0814 81.064 59.1534 78.856 58.2574 76.68C57.3614 74.504 56.4654 72.328 55.5694 70.152C52.6254 63.112 49.6814 56.104 46.7374 49.128C43.8574 42.088 40.9774 35.08 38.0974 28.104C38.0974 38.024 38.0974 47.976 38.0974 57.96C38.1614 67.88 38.1934 77.8 38.1934 87.72C38.1934 89 38.7374 89.736 39.8254 89.928C40.9774 90.12 42.0334 90.216 42.9934 90.216C43.6334 90.216 44.2734 90.184 44.9134 90.12C45.5534 90.056 46.1934 90.024 46.8334 90.024C47.1534 90.024 47.3134 90.216 47.3134 90.6C47.3134 90.92 47.2814 91.368 47.2174 91.944C47.1534 92.52 46.8974 92.808 46.4494 92.808C44.7214 92.808 42.9614 92.776 41.1694 92.712C39.4414 92.584 37.7134 92.52 35.9854 92.52C34.3214 92.52 32.6254 92.584 30.8974 92.712C29.2334 92.776 27.5694 92.808 25.9054 92.808C25.8414 92.68 25.7774 92.584 25.7134 92.52C25.7134 92.392 25.6814 92.296 25.6174 92.232V91.368C25.6174 90.728 25.7454 90.376 26.0014 90.312C26.2574 90.248 26.6094 90.216 27.0574 90.216C27.5694 90.216 28.0494 90.248 28.4974 90.312C28.9454 90.312 29.3934 90.312 29.8414 90.312C30.8014 90.312 31.8254 90.184 32.9134 89.928C34.0014 89.672 34.5774 88.936 34.6414 87.72C34.7694 86.696 34.8014 85.672 34.7374 84.648C34.7374 83.56 34.7374 82.504 34.7374 81.48C34.7374 79.432 34.7054 77.384 34.6414 75.336C34.6414 73.224 34.6414 71.144 34.6414 69.096C34.6414 62.248 34.6734 55.432 34.7374 48.648C34.8654 41.864 34.9294 35.08 34.9294 28.296C34.9294 27.08 34.3534 26.28 33.2014 25.896C32.0494 25.512 30.9934 25.32 30.0334 25.32C29.4574 25.32 28.8814 25.352 28.3054 25.416C27.7294 25.48 27.1534 25.512 26.5774 25.512C26.1934 25.512 25.9374 25.32 25.8094 24.936C25.6814 24.552 25.6174 24.232 25.6174 23.976C25.6174 23.08 25.9694 22.632 26.6734 22.632C28.3374 22.632 30.0334 22.696 31.7614 22.824C33.4894 22.888 35.1854 22.92 36.8494 22.92C40.1134 22.92 43.3774 22.824 46.6414 22.632L69.3934 77.352C72.9134 68.2 76.5934 59.144 80.4334 50.184C84.2734 41.16 87.8254 32.04 91.0894 22.824C92.6894 22.888 94.2574 22.952 95.7934 23.016C97.3934 23.016 98.9934 23.016 100.593 23.016C102.513 23.016 104.401 22.952 106.257 22.824C108.177 22.632 110.097 22.536 112.017 22.536C112.401 22.536 112.625 22.728 112.689 23.112C112.753 23.496 112.785 23.816 112.785 24.072C112.785 24.328 112.753 24.648 112.689 25.032C112.625 25.416 112.401 25.608 112.017 25.608C111.185 25.608 110.385 25.576 109.617 25.512C108.849 25.448 108.081 25.416 107.313 25.416C106.545 25.416 105.585 25.608 104.433 25.992C103.345 26.312 102.801 26.952 102.801 27.912V86.952C102.801 88.424 103.217 89.352 104.049 89.736C104.945 90.056 106.065 90.216 107.409 90.216C108.177 90.216 108.945 90.184 109.713 90.12C110.481 90.056 111.281 90.024 112.113 90.024C112.625 90.024 112.913 90.216 112.977 90.6C113.041 90.984 113.073 91.336 113.073 91.656ZM170.027 64.488C167.979 58.728 165.931 52.968 163.883 47.208C161.835 41.384 159.787 35.592 157.739 29.832C155.755 35.592 153.739 41.352 151.691 47.112C149.643 52.872 147.627 58.664 145.643 64.488H170.027ZM197.099 91.56C197.099 91.944 197.035 92.296 196.907 92.616C196.843 92.872 196.619 93 196.235 93C195.787 93 194.667 92.968 192.875 92.904C191.147 92.84 189.643 92.808 188.363 92.808C186.379 92.808 184.395 92.808 182.411 92.808C180.491 92.808 178.539 92.872 176.555 93C175.531 93.064 174.475 93.096 173.387 93.096C172.363 93.16 171.339 93.192 170.315 93.192C169.995 93.192 169.771 93.096 169.643 92.904C169.579 92.648 169.547 92.392 169.547 92.136L169.643 91.368C169.643 91.176 169.707 90.984 169.835 90.792C169.963 90.536 170.155 90.408 170.411 90.408H175.115C175.691 90.408 176.331 90.28 177.035 90.024C177.803 89.768 178.187 89.288 178.187 88.584C178.187 88.392 177.963 87.656 177.515 86.376C177.067 85.032 176.523 83.432 175.883 81.576C175.243 79.656 174.571 77.736 173.867 75.816C173.163 73.896 172.555 72.2 172.043 70.728C171.531 69.192 171.179 68.2 170.987 67.752H144.779C144.587 68.328 144.203 69.384 143.627 70.92C143.051 72.392 142.411 74.088 141.707 76.008C141.067 77.928 140.395 79.816 139.691 81.672C139.051 83.528 138.507 85.128 138.059 86.472C137.675 87.752 137.483 88.552 137.483 88.872C137.483 89.768 137.963 90.344 138.923 90.6C139.883 90.856 140.683 90.984 141.323 90.984C141.963 90.984 142.539 90.984 143.051 90.984C143.563 90.984 143.979 90.952 144.299 90.888C144.427 90.888 144.651 90.888 144.971 90.888C145.355 90.824 145.579 90.792 145.643 90.792C146.027 90.792 146.251 91.016 146.315 91.464C146.443 91.912 146.475 92.264 146.411 92.52C146.347 92.776 146.187 92.936 145.931 93C145.739 93 145.515 93 145.259 93C143.403 93 141.515 92.968 139.595 92.904C137.675 92.84 135.787 92.808 133.931 92.808C132.523 92.808 131.147 92.84 129.803 92.904C128.459 92.968 127.083 93 125.675 93C125.099 93 124.811 92.68 124.811 92.04C124.811 91.144 125.259 90.696 126.155 90.696C126.475 90.696 126.859 90.728 127.307 90.792C127.755 90.792 128.235 90.792 128.747 90.792C129.451 90.792 130.155 90.6 130.859 90.216C131.627 89.768 132.267 89 132.779 87.912C133.099 87.336 133.739 85.8 134.699 83.304C135.659 80.808 136.843 77.704 138.251 73.992C139.659 70.216 141.131 66.184 142.667 61.896C144.267 57.544 145.835 53.224 147.371 48.936C148.907 44.648 150.283 40.68 151.499 37.032C152.779 33.384 153.803 30.376 154.571 28.008C155.339 25.576 155.723 24.136 155.723 23.688C155.723 23.56 155.627 23.4 155.435 23.208C155.243 22.952 155.147 22.792 155.147 22.728C155.147 22.472 155.243 22.312 155.435 22.248C156.075 22.12 156.747 22.024 157.451 21.96C158.155 21.896 158.827 21.832 159.467 21.768C160.299 21.64 161.131 21.544 161.963 21.48C162.795 21.352 163.627 21.256 164.459 21.192L189.323 88.392C189.579 89.032 190.059 89.544 190.763 89.928C191.531 90.248 192.235 90.408 192.875 90.408C193.451 90.408 194.027 90.408 194.603 90.408C195.243 90.344 195.883 90.312 196.523 90.312C196.779 90.312 196.939 90.472 197.003 90.792C197.067 91.112 197.099 91.368 197.099 91.56ZM277.203 91.464C277.203 91.72 277.139 92.008 277.011 92.328C276.883 92.648 276.659 92.808 276.339 92.808C274.355 92.808 272.339 92.84 270.291 92.904C268.307 92.904 266.291 92.904 264.243 92.904C263.219 92.904 262.227 92.872 261.267 92.808C260.371 92.68 259.539 92.264 258.771 91.56C258.515 91.368 258.291 91.144 258.099 90.888C257.907 90.632 257.715 90.376 257.523 90.12C249.587 79.048 241.267 68.136 232.563 57.384L229.203 60.168V87.912C229.203 89 229.715 89.704 230.739 90.024C231.763 90.344 232.915 90.504 234.195 90.504C235.475 90.44 236.435 90.408 237.075 90.408C237.907 90.408 238.323 90.824 238.323 91.656C238.323 92.488 237.971 92.904 237.267 92.904C235.091 92.904 232.947 92.84 230.835 92.712C228.723 92.584 226.579 92.52 224.403 92.52C222.291 92.52 220.147 92.552 217.971 92.616C215.859 92.68 213.747 92.776 211.635 92.904C211.123 92.584 210.867 92.136 210.867 91.56C210.867 91.112 210.899 90.824 210.963 90.696C211.091 90.568 211.379 90.472 211.827 90.408C212.211 90.344 212.595 90.344 212.979 90.408C213.363 90.408 213.747 90.408 214.131 90.408C214.707 90.408 215.411 90.376 216.243 90.312C217.139 90.248 217.907 90.056 218.547 89.736C219.251 89.352 219.603 88.744 219.603 87.912V27.624C219.603 26.984 219.155 26.408 218.259 25.896C217.427 25.384 216.755 25.128 216.243 25.128H214.131C213.683 25.128 213.267 25.16 212.883 25.224C212.499 25.224 212.083 25.224 211.635 25.224C210.995 25.224 210.643 25.032 210.579 24.648C210.515 24.264 210.483 23.848 210.483 23.4C210.483 22.888 210.707 22.632 211.155 22.632C213.395 22.632 215.603 22.696 217.779 22.824C220.019 22.952 222.227 23.016 224.403 23.016C226.451 23.016 228.467 22.952 230.451 22.824C232.499 22.696 234.515 22.632 236.499 22.632C237.267 22.632 237.651 23.08 237.651 23.976C237.651 24.232 237.555 24.52 237.363 24.84C237.235 25.096 237.011 25.224 236.691 25.224C235.987 25.224 235.283 25.224 234.579 25.224C233.875 25.16 233.171 25.128 232.467 25.128C231.763 25.128 231.027 25.352 230.259 25.8C229.555 26.248 229.203 26.856 229.203 27.624V42.216C229.203 44.712 229.203 47.208 229.203 49.704C229.203 52.2 229.171 54.696 229.107 57.192C235.507 51.176 241.779 45 247.923 38.664C250.227 36.232 252.467 33.832 254.643 31.464C256.819 29.032 258.899 26.504 260.883 23.88C261.331 23.24 261.843 22.92 262.419 22.92C263.379 22.92 264.339 22.952 265.299 23.016C266.259 23.016 267.219 23.016 268.179 23.016C269.011 23.016 269.811 23.016 270.579 23.016C271.411 22.952 272.243 22.92 273.075 22.92C273.395 22.92 273.587 23.08 273.651 23.4C273.779 23.656 273.843 23.912 273.843 24.168C273.843 24.424 273.747 24.712 273.555 25.032C273.427 25.288 273.203 25.416 272.883 25.416C271.091 25.416 269.395 25.672 267.795 26.184C266.195 26.696 264.723 27.592 263.379 28.872L239.571 51.528C244.371 57.672 249.235 63.816 254.163 69.96C259.155 76.04 264.275 81.992 269.523 87.816C270.483 88.84 271.539 89.48 272.691 89.736C273.907 89.992 274.963 90.184 275.859 90.312C276.755 90.44 277.203 90.824 277.203 91.464Z" fill="#3E66F3"/>
<path d="M355.316 88.584C355.316 89.16 354.868 89.736 353.972 90.312C353.14 90.888 352.116 91.4 350.9 91.848C349.684 92.296 348.5 92.648 347.348 92.904C346.26 93.16 345.46 93.288 344.948 93.288C341.62 93.288 339.028 92.872 337.172 92.04C335.38 91.208 334.1 89.832 333.332 87.912C332.628 85.992 332.276 83.4 332.276 80.136C332.276 74.824 332.276 69.512 332.276 64.2C332.34 58.824 332.404 53.48 332.468 48.168H325.556C325.108 48.168 324.724 48.296 324.404 48.552C324.148 48.744 323.86 48.84 323.54 48.84C323.22 48.84 323.06 48.616 323.06 48.168C323.06 47.912 323.22 47.4 323.54 46.632C323.924 45.864 324.18 45.352 324.308 45.096C324.5 45.16 324.788 45.192 325.172 45.192H332.66L332.756 33C334.228 32.04 335.572 30.984 336.788 29.832C338.004 28.616 339.22 27.4 340.436 26.184C340.564 26.056 340.692 25.96 340.82 25.896C340.948 25.768 341.076 25.704 341.204 25.704C341.78 25.704 342.068 25.928 342.068 26.376L341.492 45.096C343.54 45.096 345.556 45.064 347.54 45C349.588 44.936 351.604 44.904 353.588 44.904C354.42 44.904 354.836 45.384 354.836 46.344C354.836 47.56 354.292 48.168 353.204 48.168H341.492C341.492 53.032 341.46 57.928 341.396 62.856C341.396 67.72 341.396 72.616 341.396 77.544V84.936C341.396 86.536 342.068 87.656 343.412 88.296C344.756 88.872 346.068 89.16 347.348 89.16C349.14 89.16 350.9 88.872 352.628 88.296C352.82 88.168 353.108 88.04 353.492 87.912C353.876 87.784 354.164 87.72 354.356 87.72C354.996 87.72 355.316 88.008 355.316 88.584ZM407.451 50.28C407.451 50.92 407.195 51.528 406.683 52.104C406.235 52.616 405.659 52.872 404.955 52.872C403.995 52.872 403.291 52.552 402.843 51.912C402.459 51.272 402.107 50.536 401.787 49.704C401.531 48.872 401.115 48.136 400.539 47.496C399.963 46.856 399.003 46.536 397.659 46.536C397.403 46.536 397.147 46.536 396.891 46.536C396.699 46.536 396.475 46.568 396.219 46.632C395.131 46.824 393.947 47.496 392.667 48.648C391.387 49.8 390.139 51.176 388.923 52.776C387.771 54.312 386.811 55.848 386.043 57.384C385.275 58.92 384.859 60.2 384.795 61.224C384.731 62.248 384.699 63.272 384.699 64.296C384.699 65.256 384.699 66.216 384.699 67.176C384.699 70.632 384.699 74.088 384.699 77.544C384.763 81 384.795 84.424 384.795 87.816C384.795 88.776 385.179 89.48 385.947 89.928C386.779 90.312 387.611 90.504 388.443 90.504C389.083 90.504 389.723 90.472 390.363 90.408C391.003 90.344 391.643 90.312 392.283 90.312C392.603 90.312 392.827 90.472 392.955 90.792C393.083 91.048 393.147 91.304 393.147 91.56C393.147 92.584 392.635 93.096 391.611 93.096C389.691 93.096 387.771 93.064 385.851 93C383.931 92.872 382.011 92.808 380.091 92.808C378.107 92.808 376.091 92.872 374.043 93C372.059 93.128 370.043 93.192 367.995 93.192C367.739 93.192 367.547 93 367.419 92.616C367.355 92.232 367.323 91.912 367.323 91.656C367.323 91.016 367.579 90.664 368.091 90.6C368.795 90.472 369.531 90.44 370.299 90.504C371.067 90.568 371.771 90.6 372.411 90.6C373.371 90.6 374.139 90.408 374.715 90.024C375.355 89.576 375.707 88.84 375.771 87.816C375.899 85.768 375.963 83.688 375.963 81.576C376.027 79.464 376.059 77.352 376.059 75.24V65.928C375.995 63.176 375.963 60.456 375.963 57.768C376.027 55.016 375.931 52.296 375.675 49.608C375.611 48.328 375.259 47.432 374.619 46.92C373.979 46.344 373.019 46.056 371.739 46.056C371.227 46.056 370.683 46.12 370.107 46.248C369.595 46.312 369.051 46.344 368.475 46.344C367.963 46.344 367.707 45.96 367.707 45.192C367.707 44.744 367.931 44.424 368.379 44.232C369.019 44.04 369.691 43.912 370.395 43.848C371.099 43.72 371.771 43.624 372.411 43.56C374.139 43.24 375.867 42.92 377.595 42.6C379.323 42.28 381.051 41.896 382.779 41.448C383.355 41.64 383.771 41.992 384.027 42.504C384.155 42.76 384.251 43.464 384.315 44.616C384.379 45.768 384.411 47.112 384.411 48.648C384.411 50.12 384.411 51.528 384.411 52.872C384.411 54.152 384.411 55.048 384.411 55.56C385.819 53.32 387.419 51.08 389.211 48.84C391.003 46.6 393.051 44.744 395.355 43.272C397.659 41.8 400.251 41.064 403.131 41.064C404.667 41.064 405.659 41.544 406.107 42.504C406.555 43.464 406.843 44.584 406.971 45.864C407.099 46.568 407.195 47.304 407.259 48.072C407.387 48.84 407.451 49.576 407.451 50.28ZM452.699 81.768C452.443 78.888 452.283 76.008 452.219 73.128C452.219 70.184 452.187 67.24 452.123 64.296H450.779C448.795 64.296 446.587 64.616 444.155 65.256C441.787 65.832 439.515 66.728 437.339 67.944C435.163 69.16 433.371 70.696 431.963 72.552C430.619 74.344 429.947 76.424 429.947 78.792C429.947 81.864 430.811 84.2 432.539 85.8C434.267 87.336 436.603 88.104 439.547 88.104C440.955 88.104 442.491 87.784 444.155 87.144C445.819 86.44 447.419 85.608 448.955 84.648C450.491 83.688 451.739 82.728 452.699 81.768ZM469.499 87.912C469.499 88.168 469.467 88.36 469.403 88.488C468.763 89.896 467.675 90.984 466.139 91.752C464.667 92.456 463.195 92.808 461.723 92.808C459.035 92.808 457.083 92.04 455.867 90.504C454.715 88.904 453.787 86.952 453.083 84.648C450.651 86.888 447.963 88.776 445.019 90.312C442.075 91.784 438.907 92.52 435.515 92.52C433.147 92.52 430.907 92.072 428.795 91.176C426.747 90.216 425.083 88.84 423.803 87.048C422.523 85.256 421.883 83.08 421.883 80.52C421.883 77.832 422.555 75.528 423.899 73.608C425.307 71.624 427.067 69.96 429.179 68.616C431.355 67.208 433.659 66.088 436.091 65.256C438.587 64.36 440.923 63.688 443.099 63.24C444.571 62.92 446.075 62.632 447.611 62.376C449.147 62.12 450.651 61.864 452.123 61.608C452.123 59.816 452.027 57.736 451.835 55.368C451.707 53 451.227 51.048 450.395 49.512C449.563 48.04 448.443 46.728 447.035 45.576C445.627 44.424 444.059 43.848 442.331 43.848C439.387 43.848 437.083 44.616 435.419 46.152C433.755 47.688 432.571 49.864 431.867 52.68C431.803 53 431.739 53.352 431.675 53.736C431.675 54.056 431.643 54.376 431.579 54.696C431.515 55.08 431.259 55.432 430.811 55.752C430.427 56.008 430.011 56.136 429.563 56.136C428.347 56.136 427.227 55.848 426.203 55.272C425.243 54.696 424.763 53.736 424.763 52.392C424.763 51.624 424.891 50.952 425.147 50.376C425.979 48.392 427.323 46.76 429.179 45.48C431.035 44.136 433.083 43.112 435.323 42.408C437.627 41.704 439.771 41.352 441.755 41.352C445.211 41.352 448.347 41.992 451.163 43.272C453.979 44.552 456.219 46.44 457.883 48.936C459.611 51.368 460.475 54.44 460.475 58.152C460.475 62.312 460.443 66.504 460.379 70.728C460.379 74.952 460.507 79.176 460.763 83.4C460.827 84.808 461.115 86.056 461.627 87.144C462.139 88.168 463.195 88.68 464.795 88.68C465.627 88.68 466.491 88.488 467.387 88.104C468.347 87.656 468.955 87.432 469.211 87.432C469.403 87.432 469.499 87.592 469.499 87.912ZM535.83 42.312C535.83 43.08 535.382 43.464 534.486 43.464C534.294 43.464 534.102 43.464 533.91 43.464C533.718 43.4 533.526 43.368 533.334 43.368C532.566 43.368 531.894 43.496 531.318 43.752C530.742 43.944 530.294 44.392 529.974 45.096C529.59 45.928 529.238 46.792 528.918 47.688C528.662 48.52 528.374 49.384 528.054 50.28C527.414 52.072 526.774 53.864 526.134 55.656C525.494 57.384 524.854 59.144 524.214 60.936C522.358 66.312 520.438 71.688 518.454 77.064C516.534 82.44 514.55 87.816 512.502 93.192L503.766 93.384C502.358 89.096 500.886 84.84 499.35 80.616C497.814 76.328 496.278 72.04 494.742 67.752C493.654 64.616 492.566 61.48 491.478 58.344C490.454 55.208 489.302 52.104 488.022 49.032C487.254 47.176 486.358 46.056 485.334 45.672C484.31 45.224 482.87 45 481.014 45C480.374 45 480.054 44.68 480.054 44.04C480.054 43.4 480.31 43.048 480.822 42.984C480.822 42.984 481.43 42.92 482.646 42.792C483.926 42.6 485.398 42.376 487.062 42.12C488.79 41.864 490.294 41.672 491.574 41.544C492.918 41.352 493.622 41.256 493.686 41.256C494.134 41.256 494.454 41.352 494.646 41.544C494.838 41.736 495.03 42.024 495.222 42.408C495.542 43.048 495.766 43.752 495.894 44.52C496.086 45.224 496.31 45.928 496.566 46.632C497.142 48.424 497.686 50.248 498.198 52.104C498.774 53.96 499.382 55.816 500.022 57.672C501.75 62.92 503.478 68.136 505.206 73.32C506.998 78.504 508.758 83.688 510.486 88.872C510.87 87.848 511.478 86.152 512.31 83.784C513.142 81.416 514.102 78.696 515.19 75.624C516.278 72.552 517.366 69.384 518.454 66.12C519.606 62.792 520.662 59.656 521.622 56.712C522.582 53.704 523.35 51.144 523.926 49.032C524.502 46.856 524.79 45.416 524.79 44.712C524.79 44.008 524.502 43.624 523.926 43.56C523.414 43.432 522.902 43.368 522.39 43.368C521.75 43.368 521.11 43.4 520.47 43.464C519.894 43.464 519.254 43.464 518.55 43.464C517.974 43.464 517.686 43.144 517.686 42.504C517.686 42.184 517.814 41.96 518.07 41.832C518.326 41.64 518.582 41.512 518.838 41.448C519.158 41.448 519.478 41.448 519.798 41.448C520.118 41.448 520.406 41.448 520.662 41.448H527.958C529.11 41.448 530.262 41.416 531.414 41.352C532.566 41.288 533.718 41.256 534.87 41.256C535.51 41.256 535.83 41.608 535.83 42.312ZM583.659 59.304C583.595 56.68 583.371 54.184 582.987 51.816C582.603 49.384 581.675 47.4 580.203 45.864C578.731 44.264 576.331 43.464 573.003 43.464C569.995 43.464 567.531 44.296 565.611 45.96C563.755 47.56 562.315 49.608 561.291 52.104C560.267 54.536 559.499 57.032 558.987 59.592C560.587 59.656 562.155 59.72 563.691 59.784C565.227 59.784 566.763 59.784 568.299 59.784C570.859 59.784 573.419 59.752 575.979 59.688C578.539 59.56 581.099 59.432 583.659 59.304ZM594.699 81.288C594.699 81.608 594.635 81.8 594.507 81.864C594.315 82.504 593.835 83.272 593.067 84.168C592.363 85.064 591.563 85.928 590.667 86.76C589.771 87.528 589.035 88.104 588.459 88.488C586.347 89.96 583.947 91.144 581.259 92.04C578.635 92.936 576.011 93.384 573.387 93.384C571.211 93.384 568.779 93.032 566.091 92.328C563.467 91.624 561.227 90.664 559.371 89.448C555.787 87.08 553.163 83.976 551.499 80.136C549.835 76.296 549.003 72.296 549.003 68.136C549.003 63.4 549.931 59.016 551.787 54.984C553.643 50.952 556.619 47.688 560.715 45.192C562.571 44.104 564.651 43.208 566.955 42.504C569.259 41.736 571.467 41.352 573.579 41.352C577.355 41.352 580.683 42.12 583.563 43.656C586.443 45.192 588.683 47.368 590.283 50.184C591.947 52.936 592.779 56.232 592.779 60.072C592.779 61.16 592.523 61.864 592.011 62.184C591.563 62.504 590.859 62.664 589.899 62.664C588.619 62.664 587.339 62.632 586.059 62.568C584.779 62.504 583.499 62.44 582.219 62.376C580.427 62.248 578.635 62.184 576.843 62.184C575.115 62.184 573.355 62.184 571.563 62.184C569.387 62.184 567.211 62.184 565.035 62.184C562.859 62.184 560.683 62.248 558.507 62.376C558.443 63.4 558.379 64.392 558.315 65.352C558.251 66.312 558.219 67.304 558.219 68.328C558.219 70.696 558.507 73.16 559.083 75.72C559.659 78.216 560.587 80.552 561.867 82.728C563.147 84.84 564.779 86.568 566.763 87.912C568.747 89.192 571.147 89.832 573.963 89.832C576.843 89.832 579.595 89.384 582.219 88.488C584.843 87.592 587.243 86.152 589.419 84.168C589.995 83.592 590.507 82.984 590.955 82.344C591.467 81.64 592.011 81.032 592.587 80.52C592.907 80.2 593.259 80.04 593.643 80.04C593.963 80.04 594.219 80.168 594.411 80.424C594.603 80.68 594.699 80.968 594.699 81.288ZM636.643 91.752C636.643 92.072 636.547 92.392 636.355 92.712C636.227 92.968 635.971 93.096 635.587 93.096C633.603 93.096 631.587 93.064 629.539 93C627.491 92.872 625.443 92.808 623.395 92.808H620.035C618.691 92.808 617.347 92.872 616.003 93C614.659 93.064 613.315 93.096 611.971 93.096C611.715 93.096 611.523 93 611.395 92.808C611.331 92.552 611.299 92.328 611.299 92.136C611.299 91.944 611.299 91.752 611.299 91.56C611.299 91.368 611.331 91.176 611.395 90.984C611.523 90.728 611.875 90.6 612.451 90.6C613.091 90.536 613.731 90.536 614.371 90.6C615.075 90.6 615.523 90.6 615.715 90.6C616.611 90.6 617.411 90.408 618.115 90.024C618.819 89.576 619.171 88.84 619.171 87.816C619.171 82.888 619.203 77.992 619.267 73.128C619.331 68.2 619.363 63.304 619.363 58.44C619.363 53.448 619.331 48.456 619.267 43.464C619.267 38.408 619.267 33.384 619.267 28.392C619.267 27.944 619.235 27.464 619.171 26.952C619.107 26.376 618.915 25.928 618.595 25.608C618.339 25.288 618.083 25.128 617.827 25.128C617.571 25.064 617.251 25.032 616.867 25.032C615.715 25.032 614.563 25.224 613.411 25.608C612.323 25.992 611.235 26.184 610.147 26.184C609.443 26.184 609.091 25.768 609.091 24.936C609.091 24.424 609.475 24.072 610.243 23.88C611.075 23.688 611.715 23.56 612.163 23.496C614.403 22.984 616.835 22.408 619.459 21.768C622.083 21.128 624.451 20.392 626.563 19.56C626.691 19.56 626.819 19.528 626.947 19.464C627.075 19.4 627.171 19.368 627.235 19.368C627.619 19.368 627.843 19.496 627.907 19.752C628.035 20.008 628.099 20.296 628.099 20.616C628.099 22.408 628.067 24.2 628.003 25.992C628.003 27.72 628.003 29.48 628.003 31.272V58.152C628.003 63.08 628.035 68.04 628.099 73.032C628.163 77.96 628.195 82.888 628.195 87.816C628.195 88.84 628.611 89.576 629.443 90.024C630.339 90.408 631.203 90.6 632.035 90.6C632.739 90.6 633.411 90.568 634.051 90.504C634.691 90.44 635.331 90.408 635.971 90.408C636.291 90.408 636.483 90.6 636.547 90.984C636.611 91.304 636.643 91.56 636.643 91.752Z" fill="#E8B608"/>
<rect y="102" width="313" height="20" fill="url(#paint0_linear_12_24)"/>
<path d="M319.362 118.096C319.148 118.096 318.967 118.053 318.818 117.968C318.668 117.883 318.594 117.723 318.594 117.488C318.594 117.189 318.668 116.837 318.818 116.432C318.988 116.027 319.17 115.621 319.362 115.216C319.554 114.811 319.714 114.48 319.842 114.224C319.948 114.032 320.087 113.733 320.258 113.328C320.45 112.901 320.642 112.464 320.834 112.016C321.047 111.547 321.218 111.152 321.346 110.832C321.495 110.512 321.57 110.352 321.57 110.352C321.378 110.565 321.122 110.864 320.802 111.248C320.503 111.632 320.172 112.037 319.81 112.464C319.468 112.869 319.148 113.253 318.85 113.616C318.572 113.979 318.37 114.245 318.242 114.416C318.178 114.501 318.124 114.544 318.082 114.544C318.039 114.544 318.018 114.491 318.018 114.384C318.018 114.213 318.071 114.053 318.178 113.904C318.434 113.584 318.743 113.2 319.106 112.752C319.468 112.283 319.831 111.813 320.194 111.344C320.578 110.875 320.908 110.459 321.186 110.096C321.015 110.096 320.791 110.107 320.514 110.128C320.258 110.149 320.023 110.181 319.81 110.224C319.596 110.245 319.479 110.256 319.458 110.256C319.351 110.256 319.362 110.171 319.49 110C319.618 109.829 319.788 109.659 320.002 109.488C320.215 109.317 320.375 109.232 320.482 109.232C320.503 109.232 320.674 109.243 320.994 109.264C321.314 109.264 321.548 109.264 321.698 109.264C322.124 108.688 322.54 108.027 322.946 107.28C323.372 106.533 323.788 105.712 324.194 104.816C324.364 104.795 324.652 104.677 325.058 104.464C325.484 104.229 325.815 103.995 326.05 103.76C326.156 103.653 326.242 103.6 326.306 103.6C326.434 103.6 326.434 103.685 326.306 103.856C326.156 104.027 325.9 104.389 325.538 104.944C325.175 105.477 324.77 106.128 324.322 106.896C323.874 107.643 323.447 108.432 323.042 109.264H325.634C325.868 109.264 325.986 109.296 325.986 109.36C325.986 109.445 325.826 109.531 325.506 109.616C325.143 109.723 324.759 109.787 324.354 109.808C323.97 109.829 323.607 109.872 323.266 109.936C322.946 110 322.711 110.139 322.562 110.352C322.434 110.501 322.252 110.821 322.018 111.312C321.783 111.803 321.527 112.368 321.25 113.008C320.994 113.627 320.77 114.256 320.578 114.896C320.386 115.515 320.268 116.037 320.226 116.464V116.592C320.226 116.763 320.279 116.901 320.386 117.008C320.492 117.115 320.599 117.168 320.706 117.168C320.983 117.168 321.335 116.997 321.762 116.656C322.21 116.315 322.668 115.909 323.138 115.44C323.607 114.949 324.012 114.501 324.354 114.096C324.503 113.925 324.631 113.765 324.738 113.616C324.866 113.467 324.94 113.371 324.962 113.328C325.004 113.413 325.026 113.477 325.026 113.52C325.026 113.648 324.983 113.787 324.898 113.936C324.834 114.085 324.759 114.213 324.674 114.32C324.268 114.853 323.778 115.419 323.202 116.016C322.626 116.592 322.007 117.083 321.346 117.488C320.706 117.893 320.044 118.096 319.362 118.096ZM331.337 118.064C330.996 118.064 330.687 118 330.409 117.872C330.153 117.723 330.025 117.413 330.025 116.944C330.025 116.197 330.217 115.451 330.601 114.704C330.985 113.936 331.38 113.264 331.785 112.688C332.148 112.197 332.553 111.739 333.001 111.312C333.471 110.864 333.972 110.48 334.505 110.16C334.847 109.947 335.305 109.723 335.881 109.488C336.479 109.232 336.98 109.104 337.385 109.104C337.727 109.104 338.025 109.2 338.281 109.392C338.537 109.563 338.665 109.883 338.665 110.352C338.665 111.077 338.473 111.824 338.089 112.592C337.727 113.339 337.343 114 336.937 114.576C336.745 114.832 336.553 115.077 336.361 115.312C336.169 115.525 335.956 115.749 335.721 115.984C336.511 115.984 337.236 115.76 337.897 115.312C338.559 114.843 339.135 114.277 339.625 113.616L339.689 113.552C339.753 113.552 339.785 113.616 339.785 113.744C339.785 113.893 339.743 114.032 339.657 114.16C339.231 114.757 338.697 115.291 338.057 115.76C337.417 116.208 336.692 116.432 335.881 116.432C335.796 116.432 335.711 116.432 335.625 116.432C335.54 116.432 335.455 116.421 335.369 116.4C334.175 117.509 332.831 118.064 331.337 118.064ZM332.169 117.52C332.468 117.52 332.788 117.413 333.129 117.2C333.492 116.987 333.769 116.784 333.961 116.592C334.324 116.229 334.655 115.845 334.953 115.44C335.252 115.013 335.529 114.587 335.785 114.16C336.084 113.648 336.383 113.04 336.681 112.336C336.98 111.632 337.129 110.971 337.129 110.352C337.129 109.861 336.959 109.616 336.617 109.616C336.34 109.616 335.999 109.733 335.593 109.968C335.209 110.203 334.921 110.416 334.729 110.608C334.004 111.355 333.396 112.165 332.905 113.04C332.628 113.531 332.329 114.107 332.009 114.768C331.689 115.429 331.529 116.037 331.529 116.592C331.529 116.677 331.529 116.763 331.529 116.848C331.551 116.912 331.572 116.987 331.593 117.072C331.679 117.371 331.871 117.52 332.169 117.52ZM358.78 118.096C358.567 118.096 358.386 118.053 358.236 117.968C358.087 117.883 358.012 117.723 358.012 117.488C358.012 117.189 358.087 116.837 358.236 116.432C358.407 116.027 358.588 115.621 358.78 115.216C358.972 114.811 359.132 114.48 359.26 114.224C359.367 114.032 359.506 113.733 359.676 113.328C359.868 112.901 360.06 112.464 360.252 112.016C360.466 111.547 360.636 111.152 360.764 110.832C360.914 110.512 360.988 110.352 360.988 110.352C360.796 110.565 360.54 110.864 360.22 111.248C359.922 111.632 359.591 112.037 359.228 112.464C358.887 112.869 358.567 113.253 358.268 113.616C357.991 113.979 357.788 114.245 357.66 114.416C357.596 114.501 357.543 114.544 357.5 114.544C357.458 114.544 357.436 114.491 357.436 114.384C357.436 114.213 357.49 114.053 357.596 113.904C357.852 113.584 358.162 113.2 358.524 112.752C358.887 112.283 359.25 111.813 359.612 111.344C359.996 110.875 360.327 110.459 360.604 110.096C360.434 110.096 360.21 110.107 359.932 110.128C359.676 110.149 359.442 110.181 359.228 110.224C359.015 110.245 358.898 110.256 358.876 110.256C358.77 110.256 358.78 110.171 358.908 110C359.036 109.829 359.207 109.659 359.42 109.488C359.634 109.317 359.794 109.232 359.9 109.232C359.922 109.232 360.092 109.243 360.412 109.264C360.732 109.264 360.967 109.264 361.116 109.264C361.543 108.688 361.959 108.027 362.364 107.28C362.791 106.533 363.207 105.712 363.612 104.816C363.783 104.795 364.071 104.677 364.476 104.464C364.903 104.229 365.234 103.995 365.468 103.76C365.575 103.653 365.66 103.6 365.724 103.6C365.852 103.6 365.852 103.685 365.724 103.856C365.575 104.027 365.319 104.389 364.956 104.944C364.594 105.477 364.188 106.128 363.74 106.896C363.292 107.643 362.866 108.432 362.46 109.264H365.052C365.287 109.264 365.404 109.296 365.404 109.36C365.404 109.445 365.244 109.531 364.924 109.616C364.562 109.723 364.178 109.787 363.772 109.808C363.388 109.829 363.026 109.872 362.684 109.936C362.364 110 362.13 110.139 361.98 110.352C361.852 110.501 361.671 110.821 361.436 111.312C361.202 111.803 360.946 112.368 360.668 113.008C360.412 113.627 360.188 114.256 359.996 114.896C359.804 115.515 359.687 116.037 359.644 116.464V116.592C359.644 116.763 359.698 116.901 359.804 117.008C359.911 117.115 360.018 117.168 360.124 117.168C360.402 117.168 360.754 116.997 361.18 116.656C361.628 116.315 362.087 115.909 362.556 115.44C363.026 114.949 363.431 114.501 363.772 114.096C363.922 113.925 364.05 113.765 364.156 113.616C364.284 113.467 364.359 113.371 364.38 113.328C364.423 113.413 364.444 113.477 364.444 113.52C364.444 113.648 364.402 113.787 364.316 113.936C364.252 114.085 364.178 114.213 364.092 114.32C363.687 114.853 363.196 115.419 362.62 116.016C362.044 116.592 361.426 117.083 360.764 117.488C360.124 117.893 359.463 118.096 358.78 118.096ZM374.98 118.192C374.66 118.192 374.372 118.128 374.116 118C373.882 117.872 373.764 117.637 373.764 117.296C373.764 117.104 373.807 116.891 373.892 116.656C374.084 116.165 374.34 115.568 374.66 114.864C375.002 114.16 375.343 113.477 375.684 112.816C376.026 112.133 376.292 111.579 376.484 111.152C376.612 110.896 376.676 110.715 376.676 110.608C376.676 110.416 376.57 110.373 376.356 110.48C376.143 110.587 375.908 110.736 375.652 110.928C375.396 111.12 375.204 111.269 375.076 111.376C374.522 111.888 373.935 112.496 373.316 113.2C372.719 113.883 372.164 114.608 371.652 115.376C371.162 116.123 370.778 116.869 370.5 117.616C370.479 117.744 370.34 117.851 370.084 117.936C369.828 118.021 369.594 118.064 369.38 118.064C369.039 118.064 368.911 117.957 368.996 117.744C369.487 116.635 369.988 115.408 370.5 114.064C371.034 112.72 371.631 111.344 372.292 109.936C372.783 108.869 373.327 107.771 373.924 106.64C374.543 105.509 375.226 104.432 375.972 103.408C376.719 102.363 377.54 101.445 378.436 100.656C379.226 99.9733 380.09 99.4187 381.028 98.992C381.988 98.544 383.023 98.32 384.132 98.32C384.623 98.32 385.05 98.4267 385.412 98.64C385.775 98.832 385.978 99.184 386.02 99.696V99.984C386.02 100.283 385.988 100.581 385.924 100.88C385.903 100.965 385.818 101.008 385.668 101.008C385.604 101.008 385.583 100.997 385.604 100.976C385.69 100.421 385.54 100.027 385.156 99.792C384.794 99.5573 384.324 99.44 383.748 99.44C382.703 99.44 381.743 99.632 380.868 100.016C379.994 100.4 379.183 100.912 378.436 101.552C377.284 102.555 376.282 103.835 375.428 105.392C374.575 106.949 373.839 108.539 373.22 110.16C372.922 110.949 372.623 111.739 372.324 112.528C372.047 113.317 371.78 114.053 371.524 114.736C372.484 113.456 373.402 112.357 374.276 111.44C375.172 110.523 375.951 109.872 376.612 109.488C377.146 109.189 377.626 109.04 378.052 109.04C378.458 109.04 378.66 109.211 378.66 109.552C378.66 109.851 378.511 110.235 378.212 110.704C378.063 110.939 377.828 111.333 377.508 111.888C377.21 112.443 376.89 113.051 376.548 113.712C376.228 114.352 375.951 114.949 375.716 115.504C375.482 116.059 375.364 116.464 375.364 116.72C375.364 117.061 375.514 117.232 375.812 117.232C375.983 117.232 376.175 117.179 376.388 117.072C376.623 116.965 376.794 116.869 376.9 116.784C377.476 116.357 378.042 115.835 378.596 115.216C379.151 114.597 379.62 114.053 380.004 113.584C380.026 113.563 380.036 113.595 380.036 113.68C380.036 113.765 380.015 113.893 379.972 114.064C379.951 114.213 379.887 114.341 379.78 114.448C379.546 114.768 379.3 115.077 379.044 115.376C378.81 115.653 378.575 115.931 378.34 116.208C377.935 116.677 377.444 117.125 376.868 117.552C376.314 117.979 375.684 118.192 374.98 118.192ZM387.874 118.256C387 118.256 386.392 118.085 386.05 117.744C385.709 117.403 385.538 116.987 385.538 116.496C385.538 115.877 385.698 115.216 386.018 114.512C386.36 113.808 386.68 113.211 386.978 112.72C387.32 112.208 387.778 111.675 388.354 111.12C388.93 110.565 389.56 110.096 390.242 109.712C390.925 109.328 391.586 109.136 392.226 109.136C392.781 109.136 393.165 109.275 393.378 109.552C393.592 109.808 393.698 110.117 393.698 110.48C393.698 111.141 393.496 111.685 393.09 112.112C392.706 112.539 392.226 112.891 391.65 113.168C391.074 113.424 390.52 113.637 389.986 113.808C389.666 113.893 389.293 113.979 388.866 114.064C388.44 114.149 388.034 114.192 387.65 114.192C387.501 114.576 387.384 114.949 387.298 115.312C387.213 115.675 387.17 116.005 387.17 116.304C387.17 116.667 387.256 116.965 387.426 117.2C387.618 117.435 387.928 117.552 388.354 117.552C388.525 117.552 388.728 117.531 388.962 117.488C389.197 117.445 389.453 117.381 389.73 117.296C390.37 117.083 391 116.741 391.618 116.272C392.237 115.803 392.802 115.301 393.314 114.768C393.848 114.213 394.253 113.755 394.53 113.392C394.594 113.456 394.626 113.531 394.626 113.616C394.626 113.723 394.552 113.893 394.402 114.128C393.976 114.725 393.421 115.344 392.738 115.984C392.056 116.624 391.298 117.168 390.466 117.616C389.634 118.043 388.77 118.256 387.874 118.256ZM387.906 113.552C388.184 113.573 388.493 113.573 388.834 113.552C389.197 113.509 389.549 113.435 389.89 113.328C390.765 113.072 391.394 112.667 391.778 112.112C392.184 111.536 392.386 111.024 392.386 110.576C392.386 110.32 392.333 110.107 392.226 109.936C392.12 109.765 391.949 109.68 391.714 109.68C391.096 109.68 390.541 109.915 390.05 110.384C389.56 110.832 389.133 111.355 388.77 111.952C388.408 112.549 388.12 113.083 387.906 113.552ZM414.049 118.256C413.175 118.256 412.567 118.085 412.225 117.744C411.884 117.403 411.713 116.987 411.713 116.496C411.713 115.877 411.873 115.216 412.193 114.512C412.535 113.808 412.855 113.211 413.153 112.72C413.495 112.208 413.953 111.675 414.529 111.12C415.105 110.565 415.735 110.096 416.417 109.712C417.1 109.328 417.761 109.136 418.401 109.136C418.956 109.136 419.34 109.275 419.553 109.552C419.767 109.808 419.873 110.117 419.873 110.48C419.873 111.141 419.671 111.685 419.265 112.112C418.881 112.539 418.401 112.891 417.825 113.168C417.249 113.424 416.695 113.637 416.161 113.808C415.841 113.893 415.468 113.979 415.041 114.064C414.615 114.149 414.209 114.192 413.825 114.192C413.676 114.576 413.559 114.949 413.473 115.312C413.388 115.675 413.345 116.005 413.345 116.304C413.345 116.667 413.431 116.965 413.601 117.2C413.793 117.435 414.103 117.552 414.529 117.552C414.7 117.552 414.903 117.531 415.137 117.488C415.372 117.445 415.628 117.381 415.905 117.296C416.545 117.083 417.175 116.741 417.793 116.272C418.412 115.803 418.977 115.301 419.489 114.768C420.023 114.213 420.428 113.755 420.705 113.392C420.769 113.456 420.801 113.531 420.801 113.616C420.801 113.723 420.727 113.893 420.577 114.128C420.151 114.725 419.596 115.344 418.913 115.984C418.231 116.624 417.473 117.168 416.641 117.616C415.809 118.043 414.945 118.256 414.049 118.256ZM414.081 113.552C414.359 113.573 414.668 113.573 415.009 113.552C415.372 113.509 415.724 113.435 416.065 113.328C416.94 113.072 417.569 112.667 417.953 112.112C418.359 111.536 418.561 111.024 418.561 110.576C418.561 110.32 418.508 110.107 418.401 109.936C418.295 109.765 418.124 109.68 417.889 109.68C417.271 109.68 416.716 109.915 416.225 110.384C415.735 110.832 415.308 111.355 414.945 111.952C414.583 112.549 414.295 113.083 414.081 113.552ZM430.946 118.096C430.733 118.096 430.552 118.053 430.402 117.968C430.253 117.883 430.178 117.723 430.178 117.488C430.178 117.189 430.253 116.848 430.402 116.464C430.552 116.08 430.722 115.707 430.914 115.344C431.106 114.96 431.277 114.651 431.426 114.416C430.68 115.205 429.901 115.952 429.09 116.656C428.685 116.997 428.237 117.317 427.746 117.616C427.256 117.915 426.733 118.064 426.178 118.064C425.965 118.064 425.816 118 425.73 117.872C425.645 117.723 425.602 117.552 425.602 117.36C425.602 117.253 425.613 117.179 425.634 117.136C425.741 116.304 426.008 115.44 426.434 114.544C426.861 113.648 427.384 112.805 428.002 112.016C428.621 111.227 429.25 110.587 429.89 110.096C430.381 109.733 430.85 109.509 431.298 109.424C431.746 109.317 432.237 109.264 432.77 109.264H433.826C434.168 108.688 434.52 108.048 434.882 107.344C435.266 106.619 435.64 105.904 436.002 105.2C436.386 104.496 436.738 103.877 437.058 103.344C437.933 101.851 438.893 100.656 439.938 99.76C441.005 98.864 442.189 98.416 443.49 98.416C443.768 98.416 444.024 98.5013 444.258 98.672C444.493 98.8213 444.6 99.056 444.578 99.376L444.514 100.528C444.514 100.549 444.493 100.581 444.45 100.624C444.408 100.645 444.376 100.656 444.354 100.656C444.333 100.656 444.301 100.635 444.258 100.592C444.194 100.208 444.002 99.92 443.682 99.728C443.362 99.5147 442.968 99.408 442.498 99.408C442.349 99.408 442.178 99.4187 441.986 99.44C441.816 99.4613 441.645 99.504 441.474 99.568C440.877 99.7813 440.312 100.219 439.778 100.88C439.245 101.52 438.669 102.373 438.05 103.44C437.837 103.845 437.56 104.379 437.218 105.04C436.877 105.68 436.514 106.373 436.13 107.12C435.768 107.867 435.416 108.592 435.074 109.296C434.754 110 434.477 110.597 434.242 111.088C434.136 111.344 433.954 111.739 433.698 112.272C433.442 112.784 433.165 113.349 432.866 113.968C432.589 114.565 432.344 115.12 432.13 115.632C431.938 116.144 431.842 116.507 431.842 116.72C431.842 117.019 431.97 117.168 432.226 117.168C432.482 117.168 432.824 117.019 433.25 116.72C433.677 116.4 434.114 116.016 434.562 115.568C435.032 115.099 435.448 114.651 435.81 114.224C436.194 113.797 436.461 113.477 436.61 113.264C436.674 113.328 436.706 113.403 436.706 113.488C436.706 113.637 436.642 113.787 436.514 113.936C436.408 114.085 436.312 114.213 436.226 114.32C435.842 114.832 435.362 115.387 434.786 115.984C434.232 116.56 433.624 117.061 432.962 117.488C432.301 117.893 431.629 118.096 430.946 118.096ZM427.49 116.976C427.746 116.976 428.098 116.795 428.546 116.432C429.016 116.048 429.517 115.579 430.05 115.024C430.584 114.448 431.085 113.851 431.554 113.232C432.024 112.592 432.408 112.016 432.706 111.504C433.026 110.971 433.186 110.565 433.186 110.288C433.186 110.053 433.112 109.893 432.962 109.808C432.834 109.723 432.664 109.68 432.45 109.68C432.109 109.68 431.736 109.808 431.33 110.064C430.946 110.299 430.637 110.533 430.402 110.768C430.146 111.003 429.837 111.376 429.474 111.888C429.133 112.379 428.792 112.923 428.45 113.52C428.109 114.117 427.821 114.693 427.586 115.248C427.352 115.803 427.234 116.251 427.234 116.592C427.234 116.848 427.32 116.976 427.49 116.976ZM436.672 129.2C435.862 129.2 435.083 129.008 434.336 128.624C433.568 128.261 433.003 127.696 432.64 126.928C432.491 126.651 432.395 126.352 432.352 126.032C432.31 125.733 432.288 125.435 432.288 125.136V124.816C432.288 124.645 432.31 124.485 432.352 124.336C432.395 124.187 432.512 124.112 432.704 124.112C432.747 124.112 432.768 124.133 432.768 124.176C432.768 124.304 432.758 124.432 432.736 124.56C432.715 124.688 432.704 124.827 432.704 124.976C432.704 125.957 433.024 126.704 433.664 127.216C434.283 127.728 435.062 127.984 436 127.984C436.384 127.984 436.779 127.941 437.184 127.856C437.59 127.771 437.963 127.653 438.304 127.504C439.67 126.928 440.854 126.096 441.857 125.008C442.881 123.92 443.766 122.693 444.513 121.328C445.281 119.963 445.953 118.565 446.529 117.136C447.126 115.685 447.681 114.32 448.193 113.04C447.745 113.765 447.254 114.416 446.721 114.992C446.187 115.547 445.59 116.101 444.929 116.656C444.523 116.997 444.075 117.317 443.585 117.616C443.115 117.915 442.603 118.064 442.049 118.064C441.835 118.064 441.686 118 441.601 117.872C441.515 117.723 441.473 117.552 441.473 117.36V117.136C441.579 116.304 441.846 115.44 442.273 114.544C442.721 113.648 443.254 112.805 443.873 112.016C444.491 111.227 445.121 110.587 445.761 110.096C446.486 109.541 447.286 109.264 448.161 109.264H451.841C451.947 109.264 452.001 109.307 452.001 109.392C452.001 109.563 451.905 109.648 451.713 109.648C451.478 109.648 451.254 109.744 451.041 109.936C450.827 110.128 450.667 110.309 450.561 110.48C450.347 110.821 450.07 111.344 449.729 112.048C449.387 112.752 449.014 113.563 448.609 114.48C448.203 115.376 447.798 116.293 447.393 117.232C446.987 118.149 446.614 119.013 446.273 119.824C445.761 121.04 445.174 122.224 444.513 123.376C443.873 124.549 443.105 125.595 442.209 126.512C441.334 127.451 440.288 128.187 439.072 128.72C438.347 129.04 437.547 129.2 436.672 129.2ZM443.361 116.976C443.617 116.976 443.969 116.795 444.417 116.432C444.865 116.048 445.355 115.579 445.889 115.024C446.422 114.448 446.923 113.851 447.393 113.232C447.862 112.592 448.246 112.016 448.545 111.504C448.865 110.971 449.025 110.565 449.025 110.288C449.025 110.053 448.95 109.893 448.801 109.808C448.673 109.723 448.502 109.68 448.289 109.68C447.947 109.68 447.585 109.808 447.201 110.064C446.817 110.299 446.507 110.533 446.273 110.768C446.017 111.003 445.707 111.376 445.345 111.888C445.003 112.379 444.651 112.923 444.289 113.52C443.947 114.117 443.659 114.693 443.424 115.248C443.19 115.803 443.073 116.251 443.073 116.592C443.073 116.848 443.169 116.976 443.361 116.976ZM459.093 118.256C458.219 118.256 457.611 118.085 457.269 117.744C456.928 117.403 456.757 116.987 456.757 116.496C456.757 115.877 456.917 115.216 457.237 114.512C457.579 113.808 457.899 113.211 458.197 112.72C458.539 112.208 458.997 111.675 459.573 111.12C460.149 110.565 460.779 110.096 461.461 109.712C462.144 109.328 462.805 109.136 463.445 109.136C464 109.136 464.384 109.275 464.597 109.552C464.811 109.808 464.917 110.117 464.917 110.48C464.917 111.141 464.715 111.685 464.309 112.112C463.925 112.539 463.445 112.891 462.869 113.168C462.293 113.424 461.739 113.637 461.205 113.808C460.885 113.893 460.512 113.979 460.085 114.064C459.659 114.149 459.253 114.192 458.869 114.192C458.72 114.576 458.603 114.949 458.517 115.312C458.432 115.675 458.389 116.005 458.389 116.304C458.389 116.667 458.475 116.965 458.645 117.2C458.837 117.435 459.147 117.552 459.573 117.552C459.744 117.552 459.947 117.531 460.181 117.488C460.416 117.445 460.672 117.381 460.949 117.296C461.589 117.083 462.219 116.741 462.837 116.272C463.456 115.803 464.021 115.301 464.533 114.768C465.067 114.213 465.472 113.755 465.749 113.392C465.813 113.456 465.845 113.531 465.845 113.616C465.845 113.723 465.771 113.893 465.621 114.128C465.195 114.725 464.64 115.344 463.957 115.984C463.275 116.624 462.517 117.168 461.685 117.616C460.853 118.043 459.989 118.256 459.093 118.256ZM459.125 113.552C459.403 113.573 459.712 113.573 460.053 113.552C460.416 113.509 460.768 113.435 461.109 113.328C461.984 113.072 462.613 112.667 462.997 112.112C463.403 111.536 463.605 111.024 463.605 110.576C463.605 110.32 463.552 110.107 463.445 109.936C463.339 109.765 463.168 109.68 462.933 109.68C462.315 109.68 461.76 109.915 461.269 110.384C460.779 110.832 460.352 111.355 459.989 111.952C459.627 112.549 459.339 113.083 459.125 113.552ZM483.956 118.064C483.615 118.064 483.306 118 483.028 117.872C482.772 117.723 482.644 117.413 482.644 116.944C482.644 116.197 482.836 115.451 483.22 114.704C483.604 113.936 483.999 113.264 484.404 112.688C484.767 112.197 485.172 111.739 485.62 111.312C486.09 110.864 486.591 110.48 487.124 110.16C487.466 109.947 487.924 109.723 488.5 109.488C489.098 109.232 489.599 109.104 490.004 109.104C490.346 109.104 490.644 109.2 490.9 109.392C491.156 109.563 491.284 109.883 491.284 110.352C491.284 111.077 491.092 111.824 490.708 112.592C490.346 113.339 489.962 114 489.556 114.576C489.364 114.832 489.172 115.077 488.98 115.312C488.788 115.525 488.575 115.749 488.34 115.984C489.13 115.984 489.855 115.76 490.516 115.312C491.178 114.843 491.754 114.277 492.244 113.616L492.308 113.552C492.372 113.552 492.404 113.616 492.404 113.744C492.404 113.893 492.362 114.032 492.276 114.16C491.85 114.757 491.316 115.291 490.676 115.76C490.036 116.208 489.311 116.432 488.5 116.432C488.415 116.432 488.33 116.432 488.244 116.432C488.159 116.432 488.074 116.421 487.988 116.4C486.794 117.509 485.45 118.064 483.956 118.064ZM484.788 117.52C485.087 117.52 485.407 117.413 485.748 117.2C486.111 116.987 486.388 116.784 486.58 116.592C486.943 116.229 487.274 115.845 487.572 115.44C487.871 115.013 488.148 114.587 488.404 114.16C488.703 113.648 489.002 113.04 489.3 112.336C489.599 111.632 489.748 110.971 489.748 110.352C489.748 109.861 489.578 109.616 489.236 109.616C488.959 109.616 488.618 109.733 488.212 109.968C487.828 110.203 487.54 110.416 487.348 110.608C486.623 111.355 486.015 112.165 485.524 113.04C485.247 113.531 484.948 114.107 484.628 114.768C484.308 115.429 484.148 116.037 484.148 116.592C484.148 116.677 484.148 116.763 484.148 116.848C484.17 116.912 484.191 116.987 484.212 117.072C484.298 117.371 484.49 117.52 484.788 117.52ZM490.889 125.232C490.057 125.232 489.364 125.093 488.809 124.816C488.233 124.56 487.849 124.165 487.657 123.632C487.636 123.568 487.625 123.504 487.625 123.44C487.604 123.376 487.593 123.301 487.593 123.216C487.593 122.896 487.668 122.533 487.817 122.128C487.966 121.744 488.126 121.328 488.297 120.88C488.361 120.752 488.436 120.688 488.521 120.688C488.67 120.688 488.713 120.795 488.649 121.008C488.5 121.328 488.425 121.669 488.425 122.032C488.425 122.779 488.756 123.376 489.417 123.824C490.057 124.293 490.793 124.528 491.625 124.528C492.265 124.528 492.884 124.379 493.481 124.08C494.484 123.568 495.305 122.864 495.945 121.968C496.585 121.072 497.15 120.165 497.641 119.248C498.388 117.819 499.028 116.325 499.561 114.768C500.116 113.189 500.702 111.632 501.321 110.096H500.585C500.478 110.096 500.361 110.107 500.233 110.128C500.105 110.149 499.988 110.171 499.881 110.192L499.817 110.16C499.86 109.925 500.062 109.723 500.425 109.552C500.809 109.36 501.108 109.264 501.321 109.264H501.705C502.025 108.496 502.398 107.653 502.825 106.736C503.273 105.819 503.753 104.901 504.265 103.984C504.777 103.045 505.332 102.192 505.929 101.424C506.548 100.656 507.188 100.048 507.849 99.6C508.937 98.832 510.142 98.448 511.465 98.448C511.721 98.448 511.966 98.5333 512.201 98.704C512.457 98.8533 512.574 99.088 512.553 99.408L512.457 100.56C512.457 100.603 512.425 100.635 512.361 100.656C512.297 100.677 512.254 100.667 512.233 100.624C512.148 100.197 511.913 99.888 511.529 99.696C511.166 99.4827 510.74 99.376 510.249 99.376C509.46 99.376 508.734 99.632 508.073 100.144C507.433 100.656 506.74 101.605 505.993 102.992C505.716 103.525 505.406 104.155 505.065 104.88C504.745 105.605 504.425 106.352 504.105 107.12C503.785 107.888 503.476 108.603 503.177 109.264H505.481C505.63 109.264 505.78 109.264 505.929 109.264C506.1 109.243 506.26 109.221 506.409 109.2C506.409 109.285 506.345 109.371 506.217 109.456C506.11 109.52 506.014 109.573 505.929 109.616C505.396 109.893 504.894 110.053 504.425 110.096C503.956 110.117 503.422 110.117 502.825 110.096C502.356 111.269 501.908 112.389 501.481 113.456C501.076 114.501 500.628 115.525 500.137 116.528C499.732 117.424 499.23 118.373 498.633 119.376C498.036 120.379 497.353 121.328 496.585 122.224C495.817 123.12 494.964 123.845 494.025 124.4C493.065 124.955 492.02 125.232 490.889 125.232ZM523.612 118.096C523.398 118.096 523.217 118.053 523.068 117.968C522.918 117.883 522.844 117.723 522.844 117.488C522.844 117.189 522.918 116.837 523.068 116.432C523.238 116.027 523.42 115.621 523.612 115.216C523.804 114.811 523.964 114.48 524.092 114.224C524.198 114.032 524.337 113.733 524.508 113.328C524.7 112.901 524.892 112.464 525.084 112.016C525.297 111.547 525.468 111.152 525.596 110.832C525.745 110.512 525.82 110.352 525.82 110.352C525.628 110.565 525.372 110.864 525.052 111.248C524.753 111.632 524.422 112.037 524.06 112.464C523.718 112.869 523.398 113.253 523.1 113.616C522.822 113.979 522.62 114.245 522.492 114.416C522.428 114.501 522.374 114.544 522.332 114.544C522.289 114.544 522.268 114.491 522.268 114.384C522.268 114.213 522.321 114.053 522.428 113.904C522.684 113.584 522.993 113.2 523.356 112.752C523.718 112.283 524.081 111.813 524.444 111.344C524.828 110.875 525.158 110.459 525.436 110.096C525.265 110.096 525.041 110.107 524.764 110.128C524.508 110.149 524.273 110.181 524.06 110.224C523.846 110.245 523.729 110.256 523.708 110.256C523.601 110.256 523.612 110.171 523.74 110C523.868 109.829 524.038 109.659 524.252 109.488C524.465 109.317 524.625 109.232 524.732 109.232C524.753 109.232 524.924 109.243 525.244 109.264C525.564 109.264 525.798 109.264 525.948 109.264C526.374 108.688 526.79 108.027 527.196 107.28C527.622 106.533 528.038 105.712 528.444 104.816C528.614 104.795 528.902 104.677 529.308 104.464C529.734 104.229 530.065 103.995 530.3 103.76C530.406 103.653 530.492 103.6 530.556 103.6C530.684 103.6 530.684 103.685 530.556 103.856C530.406 104.027 530.15 104.389 529.788 104.944C529.425 105.477 529.02 106.128 528.572 106.896C528.124 107.643 527.697 108.432 527.292 109.264H529.884C530.118 109.264 530.236 109.296 530.236 109.36C530.236 109.445 530.076 109.531 529.756 109.616C529.393 109.723 529.009 109.787 528.604 109.808C528.22 109.829 527.857 109.872 527.516 109.936C527.196 110 526.961 110.139 526.812 110.352C526.684 110.501 526.502 110.821 526.268 111.312C526.033 111.803 525.777 112.368 525.5 113.008C525.244 113.627 525.02 114.256 524.828 114.896C524.636 115.515 524.518 116.037 524.476 116.464V116.592C524.476 116.763 524.529 116.901 524.636 117.008C524.742 117.115 524.849 117.168 524.956 117.168C525.233 117.168 525.585 116.997 526.012 116.656C526.46 116.315 526.918 115.909 527.388 115.44C527.857 114.949 528.262 114.501 528.604 114.096C528.753 113.925 528.881 113.765 528.988 113.616C529.116 113.467 529.19 113.371 529.212 113.328C529.254 113.413 529.276 113.477 529.276 113.52C529.276 113.648 529.233 113.787 529.148 113.936C529.084 114.085 529.009 114.213 528.924 114.32C528.518 114.853 528.028 115.419 527.452 116.016C526.876 116.592 526.257 117.083 525.596 117.488C524.956 117.893 524.294 118.096 523.612 118.096ZM539.811 118.192C539.491 118.192 539.203 118.128 538.947 118C538.713 117.872 538.595 117.637 538.595 117.296C538.595 117.104 538.638 116.891 538.723 116.656C538.915 116.165 539.171 115.568 539.491 114.864C539.833 114.16 540.174 113.477 540.515 112.816C540.857 112.133 541.123 111.579 541.315 111.152C541.443 110.896 541.507 110.715 541.507 110.608C541.507 110.416 541.401 110.373 541.187 110.48C540.974 110.587 540.739 110.736 540.483 110.928C540.227 111.12 540.035 111.269 539.907 111.376C539.353 111.888 538.766 112.496 538.147 113.2C537.55 113.883 536.995 114.608 536.483 115.376C535.993 116.123 535.609 116.869 535.331 117.616C535.31 117.744 535.171 117.851 534.915 117.936C534.659 118.021 534.425 118.064 534.211 118.064C533.87 118.064 533.742 117.957 533.827 117.744C534.318 116.635 534.819 115.408 535.331 114.064C535.865 112.72 536.462 111.344 537.123 109.936C537.614 108.869 538.158 107.771 538.755 106.64C539.374 105.509 540.057 104.432 540.803 103.408C541.55 102.363 542.371 101.445 543.267 100.656C544.057 99.9733 544.921 99.4187 545.859 98.992C546.819 98.544 547.854 98.32 548.963 98.32C549.454 98.32 549.881 98.4267 550.243 98.64C550.606 98.832 550.809 99.184 550.851 99.696V99.984C550.851 100.283 550.819 100.581 550.755 100.88C550.734 100.965 550.649 101.008 550.499 101.008C550.435 101.008 550.414 100.997 550.435 100.976C550.521 100.421 550.371 100.027 549.987 99.792C549.625 99.5573 549.155 99.44 548.579 99.44C547.534 99.44 546.574 99.632 545.699 100.016C544.825 100.4 544.014 100.912 543.267 101.552C542.115 102.555 541.113 103.835 540.259 105.392C539.406 106.949 538.67 108.539 538.051 110.16C537.753 110.949 537.454 111.739 537.155 112.528C536.878 113.317 536.611 114.053 536.355 114.736C537.315 113.456 538.233 112.357 539.107 111.44C540.003 110.523 540.782 109.872 541.443 109.488C541.977 109.189 542.457 109.04 542.883 109.04C543.289 109.04 543.491 109.211 543.491 109.552C543.491 109.851 543.342 110.235 543.043 110.704C542.894 110.939 542.659 111.333 542.339 111.888C542.041 112.443 541.721 113.051 541.379 113.712C541.059 114.352 540.782 114.949 540.547 115.504C540.313 116.059 540.195 116.464 540.195 116.72C540.195 117.061 540.345 117.232 540.643 117.232C540.814 117.232 541.006 117.179 541.219 117.072C541.454 116.965 541.625 116.869 541.731 116.784C542.307 116.357 542.873 115.835 543.427 115.216C543.982 114.597 544.451 114.053 544.835 113.584C544.857 113.563 544.867 113.595 544.867 113.68C544.867 113.765 544.846 113.893 544.803 114.064C544.782 114.213 544.718 114.341 544.611 114.448C544.377 114.768 544.131 115.077 543.875 115.376C543.641 115.653 543.406 115.931 543.171 116.208C542.766 116.677 542.275 117.125 541.699 117.552C541.145 117.979 540.515 118.192 539.811 118.192ZM552.706 118.256C551.831 118.256 551.223 118.085 550.882 117.744C550.54 117.403 550.37 116.987 550.37 116.496C550.37 115.877 550.53 115.216 550.85 114.512C551.191 113.808 551.511 113.211 551.81 112.72C552.151 112.208 552.61 111.675 553.186 111.12C553.762 110.565 554.391 110.096 555.074 109.712C555.756 109.328 556.418 109.136 557.058 109.136C557.612 109.136 557.996 109.275 558.21 109.552C558.423 109.808 558.53 110.117 558.53 110.48C558.53 111.141 558.327 111.685 557.922 112.112C557.538 112.539 557.058 112.891 556.482 113.168C555.906 113.424 555.351 113.637 554.818 113.808C554.498 113.893 554.124 113.979 553.698 114.064C553.271 114.149 552.866 114.192 552.482 114.192C552.332 114.576 552.215 114.949 552.13 115.312C552.044 115.675 552.002 116.005 552.002 116.304C552.002 116.667 552.087 116.965 552.258 117.2C552.45 117.435 552.759 117.552 553.186 117.552C553.356 117.552 553.559 117.531 553.794 117.488C554.028 117.445 554.284 117.381 554.562 117.296C555.202 117.083 555.831 116.741 556.45 116.272C557.068 115.803 557.634 115.301 558.146 114.768C558.679 114.213 559.084 113.755 559.362 113.392C559.426 113.456 559.458 113.531 559.458 113.616C559.458 113.723 559.383 113.893 559.234 114.128C558.807 114.725 558.252 115.344 557.57 115.984C556.887 116.624 556.13 117.168 555.298 117.616C554.466 118.043 553.602 118.256 552.706 118.256ZM552.738 113.552C553.015 113.573 553.324 113.573 553.666 113.552C554.028 113.509 554.38 113.435 554.722 113.328C555.596 113.072 556.226 112.667 556.61 112.112C557.015 111.536 557.218 111.024 557.218 110.576C557.218 110.32 557.164 110.107 557.058 109.936C556.951 109.765 556.78 109.68 556.546 109.68C555.927 109.68 555.372 109.915 554.882 110.384C554.391 110.832 553.964 111.355 553.602 111.952C553.239 112.549 552.951 113.083 552.738 113.552ZM579.681 118.192C579.382 118.192 579.126 118.085 578.913 117.872C578.699 117.659 578.593 117.285 578.593 116.752C578.593 116.283 578.625 115.728 578.689 115.088C578.774 114.448 578.891 113.797 579.041 113.136C579.19 112.453 579.361 111.856 579.553 111.344C579.19 111.877 578.785 112.432 578.337 113.008C577.889 113.563 577.515 114.032 577.217 114.416C577.153 114.501 577.099 114.544 577.057 114.544C577.014 114.544 576.993 114.491 576.993 114.384C576.993 114.213 577.046 114.053 577.153 113.904C577.601 113.285 578.102 112.581 578.657 111.792C579.233 111.003 579.723 110.288 580.129 109.648C580.363 109.605 580.641 109.541 580.961 109.456C581.302 109.371 581.547 109.253 581.697 109.104C581.803 109.04 581.867 109.008 581.889 109.008C581.953 109.008 581.985 109.051 581.985 109.136C581.985 109.2 581.953 109.275 581.889 109.36C581.697 109.637 581.483 110.075 581.249 110.672C581.014 111.248 580.79 111.899 580.577 112.624C580.363 113.328 580.182 114.021 580.033 114.704C579.905 115.387 579.841 115.952 579.841 116.4C579.841 116.741 579.894 116.976 580.001 117.104C580.129 117.232 580.267 117.296 580.417 117.296C580.715 117.296 581.025 117.157 581.345 116.88C581.686 116.603 582.017 116.261 582.337 115.856C582.678 115.451 582.977 115.056 583.233 114.672C583.489 114.288 583.681 113.989 583.809 113.776C584.235 113.093 584.641 112.357 585.025 111.568C585.43 110.757 585.771 110.117 586.049 109.648C586.283 109.605 586.561 109.541 586.881 109.456C587.222 109.371 587.478 109.253 587.649 109.104C587.713 109.04 587.766 109.008 587.809 109.008C587.873 109.008 587.905 109.051 587.905 109.136C587.926 109.2 587.905 109.275 587.841 109.36C587.649 109.637 587.446 110.064 587.233 110.64C587.019 111.216 586.806 111.856 586.593 112.56C586.401 113.243 586.241 113.925 586.113 114.608C585.985 115.269 585.921 115.835 585.921 116.304C585.921 116.944 586.155 117.264 586.625 117.264C586.945 117.264 587.297 117.147 587.681 116.912C588.086 116.677 588.417 116.432 588.673 116.176C589.398 115.429 590.006 114.693 590.497 113.968C590.987 113.243 591.403 112.411 591.745 111.472C591.873 111.152 591.958 110.875 592.001 110.64C592.043 110.384 592.065 110.149 592.065 109.936C592.065 109.637 592.011 109.403 591.905 109.232C591.819 109.04 591.723 108.933 591.617 108.912C591.51 108.869 591.457 108.816 591.457 108.752C591.457 108.709 591.51 108.667 591.617 108.624C591.723 108.56 591.841 108.539 591.969 108.56C592.31 108.645 592.598 108.805 592.833 109.04C593.089 109.253 593.217 109.573 593.217 110C593.217 110.341 593.142 110.704 592.993 111.088C592.694 111.877 592.257 112.699 591.681 113.552C591.126 114.384 590.497 115.163 589.793 115.888C589.089 116.613 588.353 117.2 587.585 117.648C587.307 117.797 587.019 117.925 586.721 118.032C586.422 118.139 586.134 118.192 585.857 118.192C585.515 118.192 585.217 118.085 584.961 117.872C584.726 117.659 584.609 117.285 584.609 116.752C584.609 116.197 584.662 115.536 584.769 114.768C584.897 114 585.057 113.253 585.249 112.528C585.099 112.763 584.95 113.019 584.801 113.296C584.673 113.552 584.523 113.819 584.353 114.096C583.819 114.864 583.265 115.589 582.689 116.272C582.134 116.955 581.654 117.413 581.249 117.648C580.993 117.797 580.726 117.925 580.449 118.032C580.171 118.139 579.915 118.192 579.681 118.192ZM599.969 118.064C599.627 118.064 599.318 118 599.041 117.872C598.785 117.723 598.657 117.413 598.657 116.944C598.657 116.197 598.849 115.451 599.233 114.704C599.617 113.936 600.011 113.264 600.417 112.688C600.779 112.197 601.185 111.739 601.633 111.312C602.102 110.864 602.603 110.48 603.137 110.16C603.478 109.947 603.937 109.723 604.513 109.488C605.11 109.232 605.611 109.104 606.017 109.104C606.358 109.104 606.657 109.2 606.913 109.392C607.169 109.563 607.297 109.883 607.297 110.352C607.297 111.077 607.105 111.824 606.721 112.592C606.358 113.339 605.974 114 605.569 114.576C605.377 114.832 605.185 115.077 604.993 115.312C604.801 115.525 604.587 115.749 604.353 115.984C605.142 115.984 605.867 115.76 606.529 115.312C607.19 114.843 607.766 114.277 608.257 113.616L608.321 113.552C608.385 113.552 608.417 113.616 608.417 113.744C608.417 113.893 608.374 114.032 608.289 114.16C607.862 114.757 607.329 115.291 606.689 115.76C606.049 116.208 605.323 116.432 604.513 116.432C604.427 116.432 604.342 116.432 604.257 116.432C604.171 116.432 604.086 116.421 604.001 116.4C602.806 117.509 601.462 118.064 599.969 118.064ZM600.801 117.52C601.099 117.52 601.419 117.413 601.761 117.2C602.123 116.987 602.401 116.784 602.593 116.592C602.955 116.229 603.286 115.845 603.585 115.44C603.883 115.013 604.161 114.587 604.417 114.16C604.715 113.648 605.014 113.04 605.313 112.336C605.611 111.632 605.761 110.971 605.761 110.352C605.761 109.861 605.59 109.616 605.249 109.616C604.971 109.616 604.63 109.733 604.225 109.968C603.841 110.203 603.553 110.416 603.361 110.608C602.635 111.355 602.027 112.165 601.537 113.04C601.259 113.531 600.961 114.107 600.641 114.768C600.321 115.429 600.161 116.037 600.161 116.592C600.161 116.677 600.161 116.763 600.161 116.848C600.182 116.912 600.203 116.987 600.225 117.072C600.31 117.371 600.502 117.52 600.801 117.52ZM614.517 118.448C614.432 118.448 614.432 118.363 614.517 118.192C614.624 118 614.72 117.787 614.805 117.552C614.912 117.317 615.019 117.061 615.125 116.784C615.339 116.272 615.573 115.696 615.829 115.056C616.085 114.416 616.331 113.797 616.565 113.2C616.8 112.581 617.003 112.059 617.173 111.632C617.365 111.184 617.493 110.896 617.557 110.768C617.259 111.088 616.896 111.493 616.469 111.984C616.064 112.453 615.68 112.912 615.317 113.36C614.955 113.808 614.677 114.16 614.485 114.416C614.421 114.501 614.368 114.544 614.325 114.544C614.283 114.544 614.261 114.491 614.261 114.384C614.261 114.213 614.315 114.053 614.421 113.904C614.827 113.392 615.275 112.816 615.765 112.176C616.277 111.536 616.736 110.949 617.141 110.416C617.547 109.861 617.803 109.499 617.909 109.328C618.144 109.285 618.485 109.221 618.933 109.136C619.403 109.051 619.723 108.933 619.893 108.784C619.957 108.72 620.021 108.688 620.085 108.688C620.128 108.688 620.149 108.731 620.149 108.816C620.171 108.88 620.149 108.955 620.085 109.04C619.957 109.168 619.765 109.445 619.509 109.872C619.275 110.299 619.008 110.789 618.709 111.344C618.411 111.899 618.123 112.432 617.845 112.944C618.059 112.624 618.336 112.251 618.677 111.824C619.04 111.376 619.435 110.949 619.861 110.544C620.288 110.117 620.715 109.765 621.141 109.488C621.589 109.211 622.005 109.072 622.389 109.072C622.667 109.072 622.901 109.136 623.093 109.264C623.285 109.371 623.435 109.573 623.541 109.872C623.605 110.021 623.637 110.192 623.637 110.384C623.637 110.747 623.541 111.099 623.349 111.44C623.179 111.76 623.051 112.005 622.965 112.176C622.944 112.24 622.869 112.304 622.741 112.368C622.613 112.411 622.56 112.389 622.581 112.304C622.603 112.197 622.613 112.091 622.613 111.984C622.635 111.877 622.645 111.76 622.645 111.632C622.645 111.269 622.571 110.939 622.421 110.64C622.293 110.341 622.048 110.192 621.685 110.192C621.344 110.192 620.928 110.405 620.437 110.832C619.947 111.259 619.456 111.749 618.965 112.304C618.347 113.029 617.856 113.723 617.493 114.384C617.131 115.024 616.832 115.653 616.597 116.272C616.469 116.613 616.341 116.955 616.213 117.296C616.085 117.616 615.989 117.872 615.925 118.064C615.648 118.085 615.371 118.149 615.093 118.256C614.816 118.384 614.624 118.448 614.517 118.448ZM631.556 118.064C630.916 118.064 630.479 117.915 630.244 117.616C630.01 117.296 629.892 116.912 629.892 116.464C629.892 115.867 630.02 115.227 630.276 114.544C630.554 113.861 630.778 113.328 630.948 112.944C630.671 113.243 630.404 113.531 630.148 113.808C629.892 114.085 629.711 114.288 629.604 114.416C629.54 114.501 629.487 114.544 629.444 114.544C629.402 114.544 629.38 114.491 629.38 114.384C629.38 114.213 629.434 114.053 629.54 113.904C629.839 113.52 630.18 113.115 630.564 112.688C630.948 112.261 631.322 111.813 631.684 111.344C632.111 110.555 632.58 109.637 633.092 108.592C633.626 107.525 634.17 106.437 634.724 105.328C635.3 104.197 635.855 103.163 636.388 102.224C636.943 101.264 637.434 100.496 637.86 99.92C638.223 99.7707 638.564 99.5787 638.884 99.344C639.226 99.1093 639.556 98.896 639.876 98.704C640.218 98.4907 640.57 98.384 640.932 98.384C641.167 98.384 641.338 98.448 641.444 98.576C641.572 98.704 641.658 98.8533 641.7 99.024C641.722 99.088 641.732 99.2053 641.732 99.376C641.732 99.8667 641.562 100.464 641.22 101.168C640.9 101.872 640.516 102.565 640.068 103.248C639.642 103.909 639.268 104.453 638.948 104.88C638.095 106.075 637.22 107.163 636.324 108.144C635.428 109.104 634.618 109.915 633.892 110.576C633.188 111.216 632.676 111.685 632.356 111.984C632.207 112.261 632.026 112.635 631.812 113.104C631.62 113.552 631.45 114.032 631.3 114.544C631.151 115.035 631.076 115.493 631.076 115.92C631.076 116.283 631.162 116.592 631.332 116.848C631.503 117.083 631.791 117.2 632.196 117.2C632.26 117.2 632.324 117.2 632.388 117.2C632.452 117.2 632.527 117.189 632.612 117.168C632.975 117.104 633.37 116.901 633.796 116.56C634.223 116.219 634.65 115.824 635.076 115.376C635.503 114.928 635.887 114.501 636.228 114.096C636.378 113.925 636.516 113.765 636.644 113.616C636.772 113.445 636.858 113.328 636.9 113.264C637.05 113.413 637.039 113.605 636.868 113.84C636.719 114.053 636.591 114.235 636.484 114.384C636.335 114.576 636.122 114.843 635.844 115.184C635.567 115.504 635.247 115.856 634.884 116.24C634.479 116.645 633.978 117.051 633.38 117.456C632.783 117.861 632.175 118.064 631.556 118.064ZM632.9 110.704C633.562 110.149 634.394 109.36 635.396 108.336C636.42 107.291 637.423 106.032 638.404 104.56C638.511 104.389 638.682 104.101 638.916 103.696C639.172 103.291 639.428 102.832 639.684 102.32C639.962 101.787 640.196 101.275 640.388 100.784C640.58 100.272 640.676 99.8347 640.676 99.472C640.676 99.1307 640.58 98.96 640.388 98.96C640.154 98.96 639.844 99.1627 639.46 99.568C639.012 100.037 638.5 100.731 637.924 101.648C637.37 102.544 636.783 103.547 636.164 104.656C635.546 105.765 634.948 106.853 634.372 107.92C633.818 108.987 633.327 109.915 632.9 110.704ZM647.04 118.096C646.827 118.096 646.645 118.053 646.496 117.968C646.347 117.883 646.272 117.723 646.272 117.488C646.272 117.189 646.347 116.848 646.496 116.464C646.645 116.08 646.816 115.707 647.008 115.344C647.2 114.96 647.371 114.651 647.52 114.416C646.773 115.205 645.995 115.952 645.184 116.656C644.779 116.997 644.331 117.317 643.84 117.616C643.349 117.915 642.827 118.064 642.272 118.064C642.059 118.064 641.909 118 641.824 117.872C641.739 117.723 641.696 117.552 641.696 117.36C641.696 117.253 641.707 117.179 641.728 117.136C641.835 116.304 642.101 115.44 642.528 114.544C642.955 113.648 643.477 112.805 644.096 112.016C644.715 111.227 645.344 110.587 645.984 110.096C646.475 109.733 646.944 109.509 647.392 109.424C647.84 109.317 648.331 109.264 648.864 109.264H649.92C650.261 108.688 650.613 108.048 650.976 107.344C651.36 106.619 651.733 105.904 652.096 105.2C652.48 104.496 652.832 103.877 653.152 103.344C654.027 101.851 654.987 100.656 656.032 99.76C657.099 98.864 658.283 98.416 659.584 98.416C659.861 98.416 660.117 98.5013 660.352 98.672C660.587 98.8213 660.693 99.056 660.672 99.376L660.608 100.528C660.608 100.549 660.587 100.581 660.544 100.624C660.501 100.645 660.469 100.656 660.448 100.656C660.427 100.656 660.395 100.635 660.352 100.592C660.288 100.208 660.096 99.92 659.776 99.728C659.456 99.5147 659.061 99.408 658.592 99.408C658.443 99.408 658.272 99.4187 658.08 99.44C657.909 99.4613 657.739 99.504 657.568 99.568C656.971 99.7813 656.405 100.219 655.872 100.88C655.339 101.52 654.763 102.373 654.144 103.44C653.931 103.845 653.653 104.379 653.312 105.04C652.971 105.68 652.608 106.373 652.224 107.12C651.861 107.867 651.509 108.592 651.168 109.296C650.848 110 650.571 110.597 650.336 111.088C650.229 111.344 650.048 111.739 649.792 112.272C649.536 112.784 649.259 113.349 648.96 113.968C648.683 114.565 648.437 115.12 648.224 115.632C648.032 116.144 647.936 116.507 647.936 116.72C647.936 117.019 648.064 117.168 648.32 117.168C648.576 117.168 648.917 117.019 649.344 116.72C649.771 116.4 650.208 116.016 650.656 115.568C651.125 115.099 651.541 114.651 651.904 114.224C652.288 113.797 652.555 113.477 652.704 113.264C652.768 113.328 652.8 113.403 652.8 113.488C652.8 113.637 652.736 113.787 652.608 113.936C652.501 114.085 652.405 114.213 652.32 114.32C651.936 114.832 651.456 115.387 650.88 115.984C650.325 116.56 649.717 117.061 649.056 117.488C648.395 117.893 647.723 118.096 647.04 118.096ZM643.584 116.976C643.84 116.976 644.192 116.795 644.64 116.432C645.109 116.048 645.611 115.579 646.144 115.024C646.677 114.448 647.179 113.851 647.648 113.232C648.117 112.592 648.501 112.016 648.8 111.504C649.12 110.971 649.28 110.565 649.28 110.288C649.28 110.053 649.205 109.893 649.056 109.808C648.928 109.723 648.757 109.68 648.544 109.68C648.203 109.68 647.829 109.808 647.424 110.064C647.04 110.299 646.731 110.533 646.496 110.768C646.24 111.003 645.931 111.376 645.568 111.888C645.227 112.379 644.885 112.923 644.544 113.52C644.203 114.117 643.915 114.693 643.68 115.248C643.445 115.803 643.328 116.251 643.328 116.592C643.328 116.848 643.413 116.976 643.584 116.976Z" fill="#3E66F3"/>
</g>
<defs>
<linearGradient id="paint0_linear_12_24" x1="0" y1="122" x2="313" y2="122" gradientUnits="userSpaceOnUse">
<stop stop-color="#EDE1B6" stop-opacity="0.12"/>
<stop offset="0.349261" stop-color="#E2C767" stop-opacity="0.57"/>
<stop offset="0.698573" stop-color="#E4BD30" stop-opacity="0.46"/>
<stop offset="0.993211" stop-color="#E8B608" stop-opacity="0.69"/>
</linearGradient>
<clipPath id="clip0_12_24">
<rect width="663" height="126" fill="white"/>
</clipPath>
</defs>
</svg>
